/* XPM */
static char *iop16[] = {
/* columns rows colors chars-per-pixel */
"16 16 27 1 ",
"  c #00AEA0",
". c #00AEA1",
"X c #00AEA2",
"o c #01AEA2",
"O c #00AEA3",
"+ c #02AFA3",
"@ c #00AFA4",
"# c #01AFA4",
"$ c #06AFA5",
"% c #07AFA5",
"& c #0BAFA5",
"* c #0CAFA5",
"= c gray70",
"- c #B5B3B3",
"; c #B6B3B3",
": c #C6B3B5",
"> c #C7B3B5",
", c #C8B3B5",
"< c #C9B3B5",
"1 c #CBB4B5",
"2 c #CCB4B5",
"3 c #D4B3B6",
"4 c #D5B3B6",
"5 c #D2B4B6",
"6 c #D3B4B6",
"7 c #D9B4B6",
"8 c None",
/* pixels */
"8888888888888888",
"88888888&8888888",
"888#*888&888*#88",
"8888X$*888*%O888",
"88888XO*8*OX8888",
"8881688@&@885288",
"8888;788o887;888",
"88888=48 83=8888",
"88888;>8.8:;8888",
"88888;>8.8:;8888",
"88888;>8.8:;8888",
"88888;>8.8:;8888",
"88888;>8.8:;8888",
"88888-<8.8,-8888",
"88888888.8888888",
"88888888+8888888"
};
