/* XPM */
static char *iop32[] = {
/* columns rows colors chars-per-pixel */
"32 32 25 1 ",
"  c #00AEA2",
". c #00AEA3",
"X c #00AFA4",
"o c #02AFA4",
"O c #05AFA4",
"+ c #06AFA4",
"@ c #07AFA5",
"# c #08AFA5",
"$ c #09AFA5",
"% c #0AAFA5",
"& c #0BAFA5",
"* c #0CAFA5",
"= c #0DAFA5",
"- c #B0B3B3",
"; c #B1B3B3",
": c #B2B3B3",
"> c gray70",
", c #B5B3B3",
"< c #B9B3B4",
"1 c #BFB3B4",
"2 c #C2B3B4",
"3 c #C3B3B4",
"4 c #C9B3B5",
"5 c #D1B4B5",
"6 c None",
/* pixels */
"66666666666666666666666666666666",
"666666666666666&&&66666666666666",
"66666&&66666666&&&66666666&&6666",
"66666&&&6666666&&&6666666&&&6666",
"66666&&&&&66666&&&66666&&&&&6666",
"666666O=&&&&666&&&666&&&&=O66666",
"66666666#*&&&&66666&&&&*# 666666",
"666666666.%*&&&666&&&*%.66666666",
"66666,56666o*&&&&&&&*o66665,6666",
"66666>-<66666@=&&&=@66666<->6666",
"66666>>>-16666+*&*+66661->>>6666",
"666666>>>:;4666$&$6664;:>>>66666",
"6666666>>>>;466X&X664;>>>>666666",
"666666666>>>366X&X663>>>66666666",
"6666666666>>366X&X663>>666666666",
"6666666666>>366X&X663>>666666666",
"6666666666>>366X&X663>>666666666",
"6666666666>>366X&X663>>666666666",
"6666666666>>366X&X663>>666666666",
"6666666666>>366X&X663>>666666666",
"6666666666>>366X&X663>>666666666",
"6666666666>>366X&X663>>666666666",
"6666666666>>366X&X663>>666666666",
"6666666666>>366X&X663>>666666666",
"6666666666>>366X&X663>>666666666",
"6666666666>>366X&X663>>666666666",
"66666666666>266X&X662>6666666666",
"666666666666666o&o66666666666666",
"666666666666666&&&66666666666666",
"666666666666666&&&66666666666666",
"666666666666666&&&66666666666666",
"6666666666666666&666666666666666"
};
