/* XPM */
static char *iop64[] = {
/* columns rows colors chars-per-pixel */
"64 64 5 1 ",
"  c #0BAFA5",
". c #B1B3B3",
"X c #B2B3B3",
"o c gray70",
"O c None",
/* pixels */
"OOOOOOOOOOOOOOOOOOOOOOOOOOOOOOOOOOOOOOOOOOOOOOOOOOOOOOOOOOOOOOOO",
"OOOOOOOOOOOOOOOOOOOOOOOOOOOOOO    OOOOOOOOOOOOOOOOOOOOOOOOOOOOOO",
"OOOOOOOOOOOOOOOOOOOOOOOOOOOOO      OOOOOOOOOOOOOOOOOOOOOOOOOOOOO",
"OOOOOOOOO  OOOOOOOOOOOOOOOOOO      OOOOOOOOOOOOOOOOOO  OOOOOOOOO",
"OOOOOOOOO    OOOOOOOOOOOOOOOO      OOOOOOOOOOOOOOOO    OOOOOOOOO",
"OOOOOOOOO      OOOOOOOOOOOOOO      OOOOOOOOOOOOOO      OOOOOOOOO",
"OOOOOOOOO       OOOOOOOOOOOOO      OOOOOOOOOOOOO       OOOOOOOOO",
"OOOOOOOOO         OOOOOOOOOOO      OOOOOOOOOOO         OOOOOOOOO",
"OOOOOOOOO           OOOOOOOOO      OOOOOOOOO           OOOOOOOOO",
"OOOOOOOOOO            OOOOOOO      OOOOOOO             OOOOOOOOO",
"OOOOOOOOOOO            OOOOOO      OOOOOO            OOOOOOOOOOO",
"OOOOOOOOOOOOO            OOOOOO  OOOOOO            OOOOOOOOOOOOO",
"OOOOOOOOOOOOOOO            OOOOOOOOOO            OOOOOOOOOOOOOOO",
"OOOOOOOOOOOOOOOO             OOOOOO             OOOOOOOOOOOOOOOO",
"OOOOOOOOOOOOOOOOOO            OOOO            OOOOOOOOOOOOOOOOOO",
"OOOOOOOOOOoOOOOOOOOO                        OOOOOOOOOoOOOOOOOOOO",
"OOOOOOOOOOooXOOOOOOOOO                    OOOOOOOOOXooOOOOOOOOOO",
"OOOOOOOOOOooooOOOOOOOOO                  OOOOOOOOOooooOOOOOOOOOO",
"OOOOOOOOOOooooooOOOOOOOOO              OOOOOOOOOooooooOOOOOOOOOO",
"OOOOOOOOOOooooooooOOOOOOOOO          OOOOOOOOOooooooooOOOOOOOOOO",
"OOOOOOOOOOoooooooooOOOOOOOOO        OOOOOOOOOoooooooooOOOOOOOOOO",
"OOOOOOOOOOoooooooooooOOOOOOOO      OOOOOOOOoooooooooooOOOOOOOOOO",
"OOOOOOOOOOOooooooooooooOOOOOO      OOOOOOooooooooooooOOOOOOOOOOO",
"OOOOOOOOOOOOoooooooooooo.OOOO      OOOOOooooooooooooOOOOOOOOOOOO",
"OOOOOOOOOOOOOOoooooooooooOOOO      OOOOoooooooooooOOOOOOOOOOOOOO",
"OOOOOOOOOOOOOOOOoooooooooOOOO      OOOOoooooooooOOOOOOOOOOOOOOOO",
"OOOOOOOOOOOOOOOOOOoooooooOOOO      OOOOoooooooOOOOOOOOOOOOOOOOOO",
"OOOOOOOOOOOOOOOOOOOooooooOOOO      OOOOooooooOOOOOOOOOOOOOOOOOOO",
"OOOOOOOOOOOOOOOOOOOooooooOOOO      OOOOooooooOOOOOOOOOOOOOOOOOOO",
"OOOOOOOOOOOOOOOOOOOooooooOOOO      OOOOooooooOOOOOOOOOOOOOOOOOOO",
"OOOOOOOOOOOOOOOOOOOooooooOOOO      OOOOooooooOOOOOOOOOOOOOOOOOOO",
"OOOOOOOOOOOOOOOOOOOooooooOOOO      OOOOooooooOOOOOOOOOOOOOOOOOOO",
"OOOOOOOOOOOOOOOOOOOooooooOOOO      OOOOooooooOOOOOOOOOOOOOOOOOOO",
"OOOOOOOOOOOOOOOOOOOooooooOOOO      OOOOooooooOOOOOOOOOOOOOOOOOOO",
"OOOOOOOOOOOOOOOOOOOooooooOOOO      OOOOooooooOOOOOOOOOOOOOOOOOOO",
"OOOOOOOOOOOOOOOOOOOooooooOOOO      OOOOooooooOOOOOOOOOOOOOOOOOOO",
"OOOOOOOOOOOOOOOOOOOooooooOOOO      OOOOooooooOOOOOOOOOOOOOOOOOOO",
"OOOOOOOOOOOOOOOOOOOooooooOOOO      OOOOooooooOOOOOOOOOOOOOOOOOOO",
"OOOOOOOOOOOOOOOOOOOooooooOOOO      OOOOooooooOOOOOOOOOOOOOOOOOOO",
"OOOOOOOOOOOOOOOOOOOooooooOOOO      OOOOooooooOOOOOOOOOOOOOOOOOOO",
"OOOOOOOOOOOOOOOOOOOooooooOOOO      OOOOooooooOOOOOOOOOOOOOOOOOOO",
"OOOOOOOOOOOOOOOOOOOooooooOOOO      OOOOooooooOOOOOOOOOOOOOOOOOOO",
"OOOOOOOOOOOOOOOOOOOooooooOOOO      OOOOooooooOOOOOOOOOOOOOOOOOOO",
"OOOOOOOOOOOOOOOOOOOooooooOOOO      OOOOooooooOOOOOOOOOOOOOOOOOOO",
"OOOOOOOOOOOOOOOOOOOooooooOOOO      OOOOooooooOOOOOOOOOOOOOOOOOOO",
"OOOOOOOOOOOOOOOOOOOooooooOOOO      OOOOooooooOOOOOOOOOOOOOOOOOOO",
"OOOOOOOOOOOOOOOOOOOooooooOOOO      OOOOooooooOOOOOOOOOOOOOOOOOOO",
"OOOOOOOOOOOOOOOOOOOooooooOOOO      OOOOooooooOOOOOOOOOOOOOOOOOOO",
"OOOOOOOOOOOOOOOOOOOooooooOOOO      OOOOooooooOOOOOOOOOOOOOOOOOOO",
"OOOOOOOOOOOOOOOOOOOooooooOOOO      OOOOooooooOOOOOOOOOOOOOOOOOOO",
"OOOOOOOOOOOOOOOOOOOooooooOOOO      OOOOooooooOOOOOOOOOOOOOOOOOOO",
"OOOOOOOOOOOOOOOOOOOooooooOOOO      OOOOooooooOOOOOOOOOOOOOOOOOOO",
"OOOOOOOOOOOOOOOOOOOOoooooOOOO      OOOOoooooOOOOOOOOOOOOOOOOOOOO",
"OOOOOOOOOOOOOOOOOOOOOOoooOOOO      OOOOoooOOOOOOOOOOOOOOOOOOOOOO",
"OOOOOOOOOOOOOOOOOOOOOOOOoOOOO      OOOOoOOOOOOOOOOOOOOOOOOOOOOOO",
"OOOOOOOOOOOOOOOOOOOOOOOOOOOOO      OOOOOOOOOOOOOOOOOOOOOOOOOOOOO",
"OOOOOOOOOOOOOOOOOOOOOOOOOOOOO      OOOOOOOOOOOOOOOOOOOOOOOOOOOOO",
"OOOOOOOOOOOOOOOOOOOOOOOOOOOOO      OOOOOOOOOOOOOOOOOOOOOOOOOOOOO",
"OOOOOOOOOOOOOOOOOOOOOOOOOOOOO      OOOOOOOOOOOOOOOOOOOOOOOOOOOOO",
"OOOOOOOOOOOOOOOOOOOOOOOOOOOOO      OOOOOOOOOOOOOOOOOOOOOOOOOOOOO",
"OOOOOOOOOOOOOOOOOOOOOOOOOOOOO      OOOOOOOOOOOOOOOOOOOOOOOOOOOOO",
"OOOOOOOOOOOOOOOOOOOOOOOOOOOOO      OOOOOOOOOOOOOOOOOOOOOOOOOOOOO",
"OOOOOOOOOOOOOOOOOOOOOOOOOOOOO      OOOOOOOOOOOOOOOOOOOOOOOOOOOOO",
"OOOOOOOOOOOOOOOOOOOOOOOOOOOOOOO  OOOOOOOOOOOOOOOOOOOOOOOOOOOOOOO"
};
